<svg xmlns="http://www.w3.org/2000/svg" id="Ebene_1" x="0" y="0" version="1.1" viewBox="0 0 350 110" xml:space="preserve"><defs/><style>.st1{fill:#123456}</style><path fill="#ffda00" d="M9.7 10.5l-9 72.3C-.2 90 5.5 96.4 12.8 96.4H126c6.2 0 11.4-4.7 12.1-10.8l7.7-72.3c.8-7.1-4.9-13.4-12.1-13.4h-112c-6.1 0-11.3 4.6-12 10.6z"/><path d="M32.1 72.1c-1.3.5-2.6.7-3.9.7-1.9 0-3.7-.4-5.5-1.2-1.7-.8-3.1-2.1-4.2-3.9-.1-.2-.2-.5-.4-.7l24.1-6.5c3-.8 4.8-4 3.7-6.9-.4-1-.7-1.9-1.2-2.8-1.2-2.2-2.6-4-4.2-5.2-1.6-1.3-3.5-2.2-5.5-2.8-2-.5-4.1-.8-6.2-.8-3.5 0-6.6.6-9.3 1.8-2.7 1.2-4.8 2.8-6.5 4.7-1.7 2-3 4.1-3.9 6.4-.9 2.3-1.3 4.7-1.3 7 0 3.9.8 7.2 2.4 9.9 1.6 2.7 3.9 4.8 6.8 6.2 2.9 1.4 6.3 2.1 10.1 2.1 2 0 4-.3 6-.8.7-.2 1.4-.4 2-.6 2.1-.7 3.1-3.1 2.2-5-.8-1.8-2.9-2.6-4.8-1.9 0 .1-.2.2-.4.3zm-13.9-17c.9-1.8 2.3-3.3 4-4.4 1.8-1.1 3.9-1.7 6.4-1.7 2.3 0 4.2.7 5.8 2 1.5 1.3 2.6 2.9 3.2 4.9l-20.8 5.8v-.8c0-2 .5-4 1.4-5.8zM89.3 44.9c-2-2-4.7-3-8.2-3-3.5 0-6.6.8-9.3 2.3-2.4 1.3-4.3 3.1-5.8 5.2v-1.8c0-2.3-1.9-4.2-4.2-4.2-2.1 0-3.9 1.6-4.2 3.7l-3.4 27.5c-.3 2.6 1.7 4.9 4.4 4.9 2.2 0 4.1-1.6 4.4-3.8l1.6-12.5c.3-2.6 1.1-5 2.2-7s2.5-3.6 4.3-4.8c1.8-1.1 3.6-1.7 5.7-1.7 2.2 0 3.8.6 4.7 1.7 1 1.1 1.3 2.7 1.2 4.6l-2.3 18.7c-.3 2.6 1.7 4.9 4.4 4.9h.1c2.2 0 4.1-1.6 4.4-3.8L92.1 53c0-3.5-.8-6.1-2.8-8.1zM110.9 16.4l-7.1 58.1c-.3 2.6 1.7 4.9 4.4 4.9 2.2 0 4.1-1.6 4.4-3.8l7.2-58.1c.3-2.6-1.7-4.9-4.4-4.9h-.2c-2.1 0-4 1.6-4.3 3.8zM121.1 67.5c1.8-1.6 3.8-2.3 5.8-2.3 1.6 0 3 .6 4.3 1.9 1.3 1.3 2 2.9 2 4.8 0 1.6-.4 2.9-1.3 4.2-.9 1.2-1.9 2.2-3.1 2.9-1.2.7-2.4 1-3.7 1-1.8 0-3.4-.6-4.7-1.8-1.3-1.2-2-2.8-2-4.7-.1-2.5.9-4.5 2.7-6zM124.4 45.4c1.8-1.6 3.7-2.4 5.8-2.4 1.6 0 3 .6 4.3 2 1.3 1.3 2 2.9 2 4.8 0 1.7-.4 3.1-1.3 4.2-.9 1.2-1.9 2.1-3.1 2.8-1.2.7-2.5 1-3.8 1-1.8 0-3.3-.6-4.6-1.8-1.3-1.2-2-2.8-2-4.8.1-2.3 1-4.2 2.7-5.8zM229.4 67.5c1.8-1.6 3.8-2.3 5.8-2.3 1.6 0 3 .6 4.3 1.9 1.3 1.3 2 2.9 2 4.8 0 1.6-.4 2.9-1.3 4.2-.9 1.2-1.9 2.2-3.1 2.9-1.2.7-2.4 1-3.7 1-1.8 0-3.4-.6-4.7-1.8-1.3-1.2-2-2.8-2-4.7-.1-2.5.9-4.5 2.7-6zM232.7 45.4c1.8-1.6 3.7-2.4 5.8-2.4 1.6 0 3 .6 4.3 2 1.3 1.3 2 2.9 2 4.8 0 1.7-.4 3.1-1.3 4.2-.9 1.2-1.9 2.1-3.1 2.8-1.2.7-2.5 1-3.8 1-1.8 0-3.3-.6-4.6-1.8-1.3-1.2-2-2.8-2-4.8.1-2.3 1-4.2 2.7-5.8zM247.5 109.9h-.2c-2.6 0-4.7-2.3-4.4-4.9l7.2-58.1c.3-2.2 2.1-3.8 4.4-3.8 2.6 0 4.7 2.3 4.4 4.9l-7.1 58.1c-.2 2.2-2.1 3.8-4.3 3.8zM178.4 46.6l-.6 2.4c-.6-1.2-1.4-2.3-2.4-3.3-1.2-1.1-2.6-2-4.4-2.8-1.8-.7-3.9-1.1-6.5-1.1-3.2 0-6 .6-8.5 1.8-2.5 1.2-4.6 2.9-6.4 4.9-1.8 2-3.1 4.3-4 6.7-.9 2.4-1.3 4.9-1.3 7.4 0 3.6.7 6.7 2.2 9.4 1.5 2.6 3.4 4.7 5.8 6.1s4.9 2.1 7.5 2c2.4.1 4.5-.2 6.3-.8 1.8-.6 3.4-1.3 4.8-2.2 1.3-.9 2.4-1.7 3.2-2.5.3-.2.5-.5.7-.7l-.1.8c-.3 2.5 1.7 4.7 4.2 4.7h.3c2.2 0 4-1.6 4.2-3.7l3.3-27.6c.3-2.5-1.7-4.7-4.2-4.7-1.9 0-3.6 1.3-4.1 3.2zM175.8 65c-.6 1.7-1.5 3.1-2.7 4.3-1.2 1.2-2.5 2.1-3.9 2.8-1.4.7-3 1-4.6 1-2.2 0-4.1-.5-5.8-1.5-1.7-1-3-2.3-4-4-1-1.7-1.4-3.7-1.4-5.9 0-1.3.2-2.6.7-4 .5-1.4 1.2-2.8 2.2-4 1-1.3 2.3-2.3 3.9-3.1 1.6-.8 3.5-1.2 5.8-1.2 1.9 0 3.6.3 5.2 1 1.5.7 2.8 1.7 3.7 2.9 1 1.3 1.5 2.7 1.8 4.4l-.9 7.3zM215.9 43.1c-2 .8-4 1.9-5.8 3.4-1.8 1.5-3.4 3.3-4.6 5.5l.3-4.3c.2-2.3-1.7-4.3-4.1-4.3-2.1 0-3.8 1.5-4 3.6l-3.4 27.6c-.3 2.6 1.7 4.9 4.4 4.9 2.2 0 4.1-1.6 4.4-3.8l1.5-12.1c.3-2.3 1.1-4.4 2.5-6.5 1.4-2 3.2-3.6 5.4-4.8 1.5-.8 3.1-1.3 4.8-1.5 1.5-.2 2.8-1.3 3-2.8l.2-1.1c.4-2.6-2.1-4.8-4.6-3.8zM299.9 43.4c-2.2 0-4.1 1.7-4.4 3.9L294 59.7c-.3 2.6-1 5-2.2 7-1.2 2-2.6 3.6-4.3 4.8-1.7 1.2-3.6 1.8-5.6 1.8-2-.1-3.5-.7-4.3-1.8-.9-1.1-1.2-2.6-1.1-4.4l2.3-18.9c.3-2.6-1.7-4.9-4.3-4.9-2.2 0-4.1 1.6-4.3 3.8l-2.8 23c-.3 3.2.4 5.7 2.4 7.7 1.9 2 4.5 3 7.8 3 2.2 0 4.4-.4 6.4-1.1 2-.7 3.8-1.8 5.3-3.1 1.3-1.1 2.5-2.4 3.4-3.7l-.1 2.1c-.1 2.4 1.8 4.3 4.2 4.3 2.1 0 3.9-1.6 4.1-3.6l3.4-27.5c.3-2.5-1.7-4.8-4.4-4.8zM348.2 50.3c-1.6-2.7-3.9-4.8-6.8-6.2-2.9-1.4-6.3-2.1-10.1-2.1-2 0-4 .3-6 .8-.7.2-1.4.4-2 .6-2.1.7-3.1 3.1-2.2 5 .8 1.8 2.9 2.6 4.8 1.9.2-.1.4-.1.5-.2 1.3-.5 2.6-.7 3.9-.7 1.9 0 3.7.4 5.5 1.2 1.7.8 3.1 2.1 4.2 3.9.1.2.2.5.4.7l-24.1 6.5c-3 .8-4.8 4-3.7 6.9.4 1 .7 1.9 1.2 2.8 1.2 2.2 2.6 4 4.2 5.2 1.6 1.3 3.5 2.2 5.5 2.8 2 .5 4.1.8 6.2.8 3.5 0 6.6-.6 9.3-1.8 2.7-1.2 4.8-2.8 6.5-4.7 1.7-2 3-4.1 3.9-6.4.9-2.3 1.3-4.7 1.3-7-.1-4-.9-7.3-2.5-10zm-7.9 16.8c-.9 1.8-2.3 3.3-4 4.4-1.8 1.1-3.9 1.7-6.5 1.7-2.3 0-4.2-.7-5.8-2-1.5-1.3-2.6-2.9-3.2-4.9l20.8-5.8v.8c.1 2-.4 4-1.3 5.8z" class="st1"/></svg>